<svg xmlns="http://www.w3.org/2000/svg" version="1.1" xmlns:xlink="http://www.w3.org/1999/xlink" xmlns:svgjs="http://svgjs.dev/svgjs" width="2000" height="1247" viewBox="0 0 2000 1247"><g transform="matrix(1,0,0,1,-1.2121212121212466,0.504858299595071)"><svg viewBox="0 0 396 247" data-background-color="#5e1914" preserveAspectRatio="xMidYMid meet" height="1247" width="2000" xmlns="http://www.w3.org/2000/svg" xmlns:xlink="http://www.w3.org/1999/xlink"><g id="tight-bounds" transform="matrix(1,0,0,1,0.2400000000000091,-0.09999999999999432)"><svg viewBox="0 0 395.52 247.2" height="247.2" width="395.52"><g><svg></svg></g><g><svg viewBox="0 0 395.52 247.2" height="247.2" width="395.52"><mask id="5f46a724-6a58-493b-b69e-c78b628e8f0d"><rect width="395.52" height="247.2" fill="white"></rect><g transform="matrix(1,0,0,1,40.310010537407805,37.08)" id="clone"><svg viewBox="0 0 314.89997892518437 173.04" height="173.04" width="314.89997892518437"><g><svg viewBox="0 0 314.89997892518437 173.04" height="173.04" width="314.89997892518437"><g><svg viewBox="0 0 314.89997892518437 173.04" height="173.04" width="314.89997892518437"><g><svg viewBox="0 0 314.89997892518437 173.04" height="173.04" width="314.89997892518437"><g id="SvgjsG1269"><svg viewBox="0 0 314.89997892518437 173.04" height="173.04" width="314.89997892518437" id="SvgjsSvg1268"><g><svg viewBox="0 0 314.89997892518437 173.04" height="173.04" width="314.89997892518437"><g transform="matrix(1,0,0,1,0,0)"><svg width="314.89997892518437" viewBox="-0.75 -39.5 87.35 48.45" height="173.04" data-palette-color="#ed1703"><path d="M15.1-4.5L14.6-4.5 14.6-31.5 15.1-31.5 15.1-18.25 34.3-18.25 34.3-31.5 34.8-31.5 34.8-4.5 34.3-4.5 34.3-17.75 15.1-17.75 15.1-4.5ZM11 0L18.75 0Q19.7 0 20.13-0.43 20.55-0.85 20.55-1.8L20.55-1.8 20.55-12.9 28.9-12.9 28.9-1.8Q28.9-0.85 29.33-0.43 29.75 0 30.7 0L30.7 0 38.45 0Q39.4 0 39.83-0.43 40.25-0.85 40.25-1.8L40.25-1.8 40.25-34.2Q40.25-35.15 39.83-35.58 39.4-36 38.45-36L38.45-36 30.7-36Q29.75-36 29.33-35.58 28.9-35.15 28.9-34.2L28.9-34.2 28.9-23.35 20.55-23.35 20.55-34.2Q20.55-35.15 20.13-35.58 19.7-36 18.75-36L18.75-36 11-36Q10.05-36 9.63-35.58 9.2-35.15 9.2-34.2L9.2-34.2 9.2-1.8Q9.2-0.85 9.63-0.43 10.05 0 11 0L11 0ZM20.35 0.05L20.35 0.05 13.85 5.45Q13.65 5.65 13.23 5.8 12.8 5.95 12.3 5.95L12.3 5.95 4.55 5.95Q3.35 5.95 2.8 5.4 2.25 4.85 2.25 3.65L2.25 3.65 2.25-28.75Q2.25-29.4 2.43-29.85 2.6-30.3 2.95-30.6L2.95-30.6 9.4-36.05Q9.65-36.25 10.08-36.38 10.5-36.5 11-36.5L11-36.5 18.75-36.5Q19.95-36.5 20.5-35.95 21.05-35.4 21.05-34.2L21.05-34.2 21.05-23.85 21.95-23.85 21.95-28.75Q21.95-29.4 22.13-29.85 22.3-30.3 22.65-30.6L22.65-30.6 29.1-36.05Q29.35-36.25 29.78-36.38 30.2-36.5 30.7-36.5L30.7-36.5 38.45-36.5Q39.65-36.5 40.2-35.95 40.75-35.4 40.75-34.2L40.75-34.2 40.75-1.8Q40.75-1.15 40.58-0.7 40.4-0.25 40.05 0.05L40.05 0.05 33.55 5.45Q33.35 5.65 32.93 5.8 32.5 5.95 32 5.95L32 5.95 24.25 5.95Q23.05 5.95 22.5 5.4 21.95 4.85 21.95 3.65L21.95 3.65 21.95-6.95 21.05-6.95 21.05-1.8Q21.05-1.15 20.88-0.7 20.7-0.25 20.35 0.05ZM80.45-2.1L73.95 3.3Q72.4 4.6 70 5.28 67.6 5.95 64.35 5.95L64.35 5.95 47.5 5.95Q46.3 5.95 45.75 5.4 45.2 4.85 45.2 3.65L45.2 3.65 45.2-28.75Q45.2-29.4 45.37-29.85 45.55-30.3 45.9-30.6L45.9-30.6 52.35-36.05Q52.6-36.25 53.02-36.38 53.45-36.5 53.95-36.5L53.95-36.5 70.8-36.5Q77.35-36.5 80.47-33.85 83.6-31.2 83.6-25.8L83.6-25.8 83.6-10.2Q83.6-7.5 82.8-5.48 82-3.45 80.45-2.1L80.45-2.1ZM53.95 0L70.8 0Q77.05 0 80.07-2.5 83.1-5 83.1-10.2L83.1-10.2 83.1-25.8Q83.1-31 80.07-33.5 77.05-36 70.8-36L70.8-36 53.95-36Q53-36 52.57-35.58 52.15-35.15 52.15-34.2L52.15-34.2 52.15-1.8Q52.15-0.85 52.57-0.43 53 0 53.95 0L53.95 0ZM69.7-4.5L57.6-4.5 57.6-31.5 69.7-31.5Q72.25-31.5 73.82-30.95 75.4-30.4 76.25-29.48 77.1-28.55 77.4-27.28 77.7-26 77.7-24.55L77.7-24.55 77.7-11.3Q77.7-9.85 77.42-8.6 77.15-7.35 76.3-6.45 75.45-5.55 73.85-5.03 72.25-4.5 69.7-4.5L69.7-4.5ZM69.7-31L69.7-31 58.1-31 58.1-5 69.7-5Q72.1-5 73.57-5.48 75.05-5.95 75.85-6.78 76.65-7.6 76.92-8.78 77.2-9.95 77.2-11.3L77.2-11.3 77.2-24.55Q77.2-25.9 76.9-27.1 76.6-28.3 75.8-29.15 75-30 73.52-30.5 72.05-31 69.7-31ZM63.5-9.45L63.5-26.45 69.45-26.45Q70.65-26.45 71.22-25.88 71.8-25.3 71.8-24.05L71.8-24.05 71.8-11.9Q71.8-10.65 71.22-10.05 70.65-9.45 69.45-9.45L69.45-9.45 63.5-9.45ZM64.85-9.95L64.85-18.6Q64.85-19.25 64.65-19.7 64.45-20.15 64-20.35L64-20.35 64-9.95 64.85-9.95Z" opacity="1" transform="matrix(1,0,0,1,0,0)" fill="black" class="wordmark-text-0" id="SvgjsPath1267" stroke-width="5" stroke="black" stroke-linejoin="round"></path></svg></g></svg></g></svg></g></svg></g></svg></g></svg></g></svg></g></mask><g mask="url(#5f46a724-6a58-493b-b69e-c78b628e8f0d)"><g><path d="M160.491 186.346h-2.912v-157.229h2.912v77.159h111.808v-77.159h2.911v157.229h-2.911v-77.159h-111.808zM136.615 212.551h45.131c3.688 0 6.367-0.835 8.036-2.504 1.631-1.631 2.446-4.29 2.446-7.978v0-64.639h48.625v64.639c0 3.688 0.835 6.347 2.504 7.978 1.631 1.669 4.29 2.504 7.978 2.504v0h45.13c3.688 0 6.367-0.835 8.036-2.504 1.631-1.631 2.446-4.29 2.446-7.978v0-188.675c0-3.688-0.815-6.367-2.446-8.037-1.669-1.631-4.348-2.446-8.036-2.445v0h-45.13c-3.688 0-6.347 0.815-7.978 2.445-1.669 1.669-2.504 4.348-2.504 8.037v0 63.183h-48.625v-63.183c0-3.688-0.815-6.367-2.446-8.037-1.669-1.631-4.348-2.446-8.036-2.445v0h-45.131c-3.688 0-6.347 0.815-7.978 2.445-1.669 1.669-2.504 4.348-2.504 8.037v0 188.675c0 3.688 0.835 6.347 2.504 7.978 1.631 1.669 4.29 2.504 7.978 2.504zM191.063 212.842v0l-37.851 31.446c-0.776 0.776-1.98 1.456-3.611 2.038-1.669 0.582-3.475 0.874-5.416 0.874v0h-45.13c-4.659 0-8.056-1.068-10.191-3.203-2.135-2.135-3.203-5.532-3.203-10.191v0-188.675c0-2.523 0.349-4.659 1.048-6.406 0.66-1.747 1.669-3.203 3.028-4.367v0l37.561-31.738c0.971-0.776 2.291-1.417 3.96-1.921 1.631-0.466 3.416-0.699 5.357-0.699v0h45.131c4.659 0 8.056 1.068 10.191 3.203 2.135 2.135 3.203 5.532 3.203 10.191v0 60.271h5.241v-28.534c0-2.523 0.349-4.659 1.048-6.406 0.66-1.747 1.669-3.203 3.028-4.367v0l37.56-31.738c0.971-0.776 2.291-1.417 3.96-1.921 1.631-0.466 3.416-0.699 5.358-0.699v0h45.13c4.659 0 8.056 1.068 10.191 3.203 2.135 2.135 3.203 5.532 3.203 10.191v0 188.675c0 2.523-0.33 4.659-0.99 6.406-0.699 1.747-1.728 3.203-3.086 4.367v0l-37.852 31.446c-0.776 0.776-1.98 1.456-3.61 2.038-1.669 0.582-3.475 0.874-5.416 0.874v0h-45.131c-4.659 0-8.056-1.068-10.191-3.203-2.135-2.135-3.203-5.532-3.202-10.191v0-61.727h-5.241v29.99c0 2.523-0.33 4.659-0.99 6.406-0.699 1.747-1.728 3.203-3.087 4.367z" fill="#ed1703" fill-rule="nonzero" stroke="none" stroke-width="1" stroke-linecap="butt" stroke-linejoin="miter" stroke-miterlimit="10" stroke-dasharray="" stroke-dashoffset="0" font-family="none" font-weight="none" font-size="none" text-anchor="none" style="mix-blend-mode: normal" data-fill-palette-color="tertiary"></path></g></g><g transform="matrix(1,0,0,1,40.310010537407805,37.08)"><svg viewBox="0 0 314.89997892518437 173.04" height="173.04" width="314.89997892518437"><g><svg viewBox="0 0 314.89997892518437 173.04" height="173.04" width="314.89997892518437"><g><svg viewBox="0 0 314.89997892518437 173.04" height="173.04" width="314.89997892518437"><g><svg viewBox="0 0 314.89997892518437 173.04" height="173.04" width="314.89997892518437"><g id="textblocktransform"><svg viewBox="0 0 314.89997892518437 173.04" height="173.04" width="314.89997892518437" id="textblock"><g><svg viewBox="0 0 314.89997892518437 173.04" height="173.04" width="314.89997892518437"><g transform="matrix(1,0,0,1,0,0)"><svg width="314.89997892518437" viewBox="-0.75 -39.5 87.35 48.45" height="173.04" data-palette-color="#ed1703"><path d="M15.1-4.5L14.6-4.5 14.6-31.5 15.1-31.5 15.1-18.25 34.3-18.25 34.3-31.5 34.8-31.5 34.8-4.5 34.3-4.5 34.3-17.75 15.1-17.75 15.1-4.5ZM11 0L18.75 0Q19.7 0 20.13-0.43 20.55-0.85 20.55-1.8L20.55-1.8 20.55-12.9 28.9-12.9 28.9-1.8Q28.9-0.85 29.33-0.43 29.75 0 30.7 0L30.7 0 38.45 0Q39.4 0 39.83-0.43 40.25-0.85 40.25-1.8L40.25-1.8 40.25-34.2Q40.25-35.15 39.83-35.58 39.4-36 38.45-36L38.45-36 30.7-36Q29.75-36 29.33-35.58 28.9-35.15 28.9-34.2L28.9-34.2 28.9-23.35 20.55-23.35 20.55-34.2Q20.55-35.15 20.13-35.58 19.7-36 18.75-36L18.75-36 11-36Q10.05-36 9.63-35.58 9.2-35.15 9.2-34.2L9.2-34.2 9.2-1.8Q9.2-0.85 9.63-0.43 10.05 0 11 0L11 0ZM20.35 0.05L20.35 0.05 13.85 5.45Q13.65 5.65 13.23 5.8 12.8 5.95 12.3 5.95L12.3 5.95 4.55 5.95Q3.35 5.95 2.8 5.4 2.25 4.85 2.25 3.65L2.25 3.65 2.25-28.75Q2.25-29.4 2.43-29.85 2.6-30.3 2.95-30.6L2.95-30.6 9.4-36.05Q9.65-36.25 10.08-36.38 10.5-36.5 11-36.5L11-36.5 18.75-36.5Q19.95-36.5 20.5-35.95 21.05-35.4 21.05-34.2L21.05-34.2 21.05-23.85 21.95-23.85 21.95-28.75Q21.95-29.4 22.13-29.85 22.3-30.3 22.65-30.6L22.65-30.6 29.1-36.05Q29.35-36.25 29.78-36.38 30.2-36.5 30.7-36.5L30.7-36.5 38.45-36.5Q39.65-36.5 40.2-35.95 40.75-35.4 40.75-34.2L40.75-34.2 40.75-1.8Q40.75-1.15 40.58-0.7 40.4-0.25 40.05 0.05L40.05 0.05 33.55 5.45Q33.35 5.65 32.93 5.8 32.5 5.95 32 5.95L32 5.95 24.25 5.95Q23.05 5.95 22.5 5.4 21.95 4.85 21.95 3.65L21.95 3.65 21.95-6.95 21.05-6.95 21.05-1.8Q21.05-1.15 20.88-0.7 20.7-0.25 20.35 0.05ZM80.45-2.1L73.95 3.3Q72.4 4.6 70 5.28 67.6 5.95 64.35 5.95L64.35 5.95 47.5 5.95Q46.3 5.95 45.75 5.4 45.2 4.85 45.2 3.65L45.2 3.65 45.2-28.75Q45.2-29.4 45.37-29.85 45.55-30.3 45.9-30.6L45.9-30.6 52.35-36.05Q52.6-36.25 53.02-36.38 53.45-36.5 53.95-36.5L53.95-36.5 70.8-36.5Q77.35-36.5 80.47-33.85 83.6-31.2 83.6-25.8L83.6-25.8 83.6-10.2Q83.6-7.5 82.8-5.48 82-3.45 80.45-2.1L80.45-2.1ZM53.95 0L70.8 0Q77.05 0 80.07-2.5 83.1-5 83.1-10.2L83.1-10.2 83.1-25.8Q83.1-31 80.07-33.5 77.05-36 70.8-36L70.8-36 53.95-36Q53-36 52.57-35.58 52.15-35.15 52.15-34.2L52.15-34.2 52.15-1.8Q52.15-0.85 52.57-0.43 53 0 53.95 0L53.95 0ZM69.7-4.5L57.6-4.5 57.6-31.5 69.7-31.5Q72.25-31.5 73.82-30.95 75.4-30.4 76.25-29.48 77.1-28.55 77.4-27.28 77.7-26 77.7-24.55L77.7-24.55 77.7-11.3Q77.7-9.85 77.42-8.6 77.15-7.35 76.3-6.45 75.45-5.55 73.85-5.03 72.25-4.5 69.7-4.5L69.7-4.5ZM69.7-31L69.7-31 58.1-31 58.1-5 69.7-5Q72.1-5 73.57-5.48 75.05-5.95 75.85-6.78 76.65-7.6 76.92-8.78 77.2-9.95 77.2-11.3L77.2-11.3 77.2-24.55Q77.2-25.9 76.9-27.1 76.6-28.3 75.8-29.15 75-30 73.52-30.5 72.05-31 69.7-31ZM63.5-9.45L63.5-26.45 69.45-26.45Q70.65-26.45 71.22-25.88 71.8-25.3 71.8-24.05L71.8-24.05 71.8-11.9Q71.8-10.65 71.22-10.05 70.65-9.45 69.45-9.45L69.45-9.45 63.5-9.45ZM64.85-9.95L64.85-18.6Q64.85-19.25 64.65-19.7 64.45-20.15 64-20.35L64-20.35 64-9.95 64.85-9.95Z" opacity="1" transform="matrix(1,0,0,1,0,0)" fill="#ed1703" class="wordmark-text-0" data-fill-palette-color="primary" id="text-0"></path></svg></g></svg></g></svg></g></svg></g></svg></g></svg></g></svg></g></svg></g><defs></defs></svg><rect width="395.52" height="247.2" fill="none" stroke="none" visibility="hidden"></rect></g></svg></g></svg>