<svg xmlns="http://www.w3.org/2000/svg" version="1.1" xmlns:xlink="http://www.w3.org/1999/xlink" xmlns:svgjs="http://svgjs.dev/svgjs" width="2000" height="2250" viewBox="0 0 2000 2250"><g transform="matrix(1,0,0,1,0.00014687500004129106,0)"><svg viewBox="0 0 320 360" data-background-color="#ffffff" preserveAspectRatio="xMidYMid meet" height="2250" width="2000" xmlns="http://www.w3.org/2000/svg" xmlns:xlink="http://www.w3.org/1999/xlink"><g id="tight-bounds" transform="matrix(1,0,0,1,0.000023499999997511622,0)"><svg viewBox="0 0 320 360" height="360" width="320"><g><svg></svg></g><g><svg viewBox="0 0 320 360" height="360" width="320"><g><path transform="translate(-74.99272,-51.79039) scale(4.65793,4.65793)" d="M20.6 59.9l0.8 1-0.4-1.3c-0.1-0.6-0.8 0.1-0.4 0.3M21.5 59.3c0.3 0.5 0.6 1 0.6 1.5 0 0.7 0.6 1 1.1 1.2-0.7-0.8-1.1-3-1.7-2.7M59.9 16.9c1.7 0 3.3-0.2 5.1 0.2 4.4 1.1 8.1 3.3 10.6 6.4l7 11.2c0.3 2.8 0.9 5.9 0.8 9.3 0.7 0 0.6-1 1.4-1.2-0.8 2-1.2 4.5-1.4 7.4-0.5-1.6 0-4 0.1-5.3-0.7 1.1-1.1 0.3-1.1-0.2 0.1-0.8-0.3-0.7-0.6-1-1.1-1-1.8-2.1-2.6-3.8 0.5-1.3 0.6-3.2-1-4.2-0.5-0.3-1.1-0.8-1.4-1.6-0.4-1.1-1.1-2.4-0.9-4.1 0.1-0.5-1.5 1.1-2.4 0.4-3.9-2.7-7.8-5.8-12.5-8.4-2.5 0-4.3-0.9-5.2-2-0.8-1-0.2-2.3 1-2.4 0.7 0 1.5-0.2 2.1 0.2 0.1-0.4 0.5-0.9 1-0.9M50 14.6l0.2 0.1c1 0.2 1.5 1.6 2.6 1.1 0 0.7 0.1 1.4-0.1 1.9-0.3 0.8-1.2 0.8-1.9 0.8-6.7-0.4-10.6 2.4-14.7 4.8-1.1 0.7-2.3 1.2-3.2 2.1-4.3 4-9 7.7-10.1 15.1l-0.9 8.2c-0.1 0.9-1.1 1.8-0.9 2.9l0.7 4.9c-0.7-0.7-1.1 0.2-0.9 0.6 0.1 0.3 0.5 1.3 1.1 0.4 0.8 1.5 1.6 4.4 2.7 5.7 3.4 4 7.8 7.6 11.4 11.2 0.9-0.2 1.6-0.2 1.8-0.8 0.3 0.6-0.3 1.2-0.8 1.3 1.6 1 3.4 1.9 5.8 2.1 3.1 0.2 6 0.7 8.7 1.4 1.4-0.4 2.8-0.6 4.3-0.7 0.5 0 0.8-0.8 1.4-1l0.1-1c0.6 0.9 0.5-0.3 0.1-0.9 0.7 0.6 0.9 1.1 1.2 1.5 0-0.3 0.8-1.4 0.8-0.1l0.2-1.3c0.3-0.2 0.4 1.1 0.7 0.2 0.3-0.9 0.9-0.2 1.5-0.5-0.2 0.4-0.1 1.2 0.6 0.7l0.8-0.7c0.5 1.2 1.3 0.7 1.7 0.5 4.4-2.8 8.8-6.1 13-9.4l-0.1 1.3 0.5-1.6c0.5 0.5 0.9 0.1 1.1-0.2 0.6-1 1.4-2 2.7-2.9-1.6 4.3-3.5 7.7-5.9 10.5l-1 1.2c0 0.7-0.2 1.6-1 1.7-0.4 0.1-1.2-0.2-1.8 0.4-0.3 0.4 0.7 1.2-0.1 0.6-0.7-0.5-1.4 0-2.2 0.2-0.6 0.2 0.4 0.8 0.6 1.2 0.2 0.4 0.4 0.8 0.3 1.3l-1.1-1.2c-1.3 0.7-2.1 2-3.2 3-0.5 0.4-0.3 1.1-0.3 1.7-0.7 0-1.5-0.2-1.9 0.2-0.3 0.4-0.2 1-0.2 1.6-1-0.1-1.1-1.6-2-1.3-0.9 0.2-1.9 0.3-2.7 0.8 0.6 1.2-1 0.5-0.8 0.7-1.5-0.9-2.8-1.6-4.4-1-3.4-1.1-7.6-0.6-10.7-0.2 0-0.5 0.1-1-0.1-1.1-0.2 0.5-0.8 0.3-0.7 0.3-1.9-1.3-3.8-2.1-5.8-3.2-1.8 0.2-3.5-0.7-4-1.2-1.4-1.3-3-0.6-4.3-0.9-2.8-0.7-3.8-3.6-4.1-5.6-0.2-1-1-1.4-1.3-1.3-1.3-4.2-3.3-8-4.9-11.9-0.4-1-0.3-2-0.3-3.1 0.5 0.2 1 0.1 0.9-0.6-0.5-3.3-1.7-5.8-3-8.2 0.7-3.4 0.8-7.4 2.4-10.4 1.4-2.7 4-4.1 5.8-6.4 0.6-0.8 0.6-1.9 1.2-2.6 2-2 4-4.1 6.2-5.9 1-0.8 2.2 0 3.7-0.3 0.5-1.8 2.5-3.4 4.4-2.9 0.8 0.2 2.4-1.9 2.9-2.1 0.8-0.3 0.4 0.8 0.4 1.5 1.9-1.5 4.5-2.3 6.9-3.2" fill="#804dee" fill-rule="nonzero" stroke="none" stroke-width="1" stroke-linecap="butt" stroke-linejoin="miter" stroke-miterlimit="10" stroke-dasharray="" stroke-dashoffset="0" font-family="none" font-weight="none" font-size="none" text-anchor="none" style="mix-blend-mode: normal" data-fill-palette-color="tertiary"></path></g><g transform="matrix(1,0,0,1,91.52152865848004,90)"><svg viewBox="0 0 136.95694268303993 180" height="180" width="136.95694268303993"><g><svg viewBox="0 0 136.95694268303993 180" height="180" width="136.95694268303993"><g><svg viewBox="0 0 192 252.34208155465592" height="180" width="136.95694268303993"><g transform="matrix(1,0,0,1,0,152.52021920647778)"><svg viewBox="0 0 192 99.82186234817814" height="99.82186234817814" width="192"><g id="textblocktransform"><svg viewBox="0 0 192 99.82186234817814" height="99.82186234817814" width="192" id="textblock"><g><svg viewBox="0 0 192 99.82186234817814" height="99.82186234817814" width="192"><g transform="matrix(1,0,0,1,0,0)"><svg width="192" viewBox="1.98 -35.94 72.36 37.62" height="99.82186234817814" data-palette-color="#804dee"><g class="wordmark-text-0" data-fill-palette-color="primary" id="text-0"><path d="M26-32.15L26-32.15Q26-33.03 26.16-33.36 26.32-33.69 26.81-33.81L26.81-33.81 35.21-35.84Q35.52-35.94 35.86-35.94L35.86-35.94Q36.21-35.94 36.33-35.73 36.45-35.52 36.45-34.89L36.45-34.89 36.16-31.05Q36.04-29.37 35.89-27.71 35.74-26.05 35.45-24.8L35.45-24.8 35.01-21.34Q34.81-19.8 34.64-18.01 34.47-16.21 34.28-13.99L34.28-13.99 33.13-1.95Q33.11-1.73 33.03-1.51 32.96-1.29 32.71-1.2L32.71-1.2Q32.54-1.12 31.92-0.88 31.3-0.63 30.44-0.32 29.59 0 28.61 0.35 27.64 0.71 26.76 1 25.88 1.29 25.2 1.49 24.51 1.68 24.27 1.68L24.27 1.68Q23.93 1.68 23.67 1.5 23.41 1.32 23.41 0.81L23.41 0.81Q23.41-2.15 23.75-5.24 24.1-8.33 24.37-11.38L24.37-11.38Q24.41-11.72 24.4-12.01 24.39-12.3 24.44-12.65L24.44-12.65 15.5-12.65 14.5-1.95Q14.48-1.73 14.42-1.53 14.36-1.32 14.09-1.2L14.09-1.2Q13.99-1.15 13.12-0.84 12.26-0.54 11.12-0.13 9.99 0.27 8.87 0.67 7.76 1.07 7.18 1.29L7.18 1.29Q6.88 1.42 6.46 1.55 6.03 1.68 5.62 1.68L5.62 1.68Q5.27 1.68 5.02 1.49 4.76 1.29 4.76 0.78L4.76 0.78Q4.76-0.39 4.85-1.89 4.93-3.39 5.05-5.04 5.18-6.69 5.35-8.42 5.52-10.16 5.69-11.84L5.69-11.84 5.74-12.55Q3.76-12.55 2.87-12.66 1.98-12.77 1.98-13.23L1.98-13.23Q1.98-13.55 2.34-14.06L2.34-14.06Q2.83-14.75 3.48-15.71 4.13-16.67 4.72-17.61 5.32-18.55 5.8-19.3 6.27-20.04 6.42-20.26L6.42-20.26 6.98-26.15Q6.98-26.2 7.03-26.88 7.08-27.56 7.15-28.5 7.23-29.44 7.31-30.44 7.4-31.45 7.47-32.15L7.47-32.15Q7.52-33.01 7.6-33.35 7.69-33.69 8.18-33.81L8.18-33.81 16.48-35.84Q16.8-35.94 17.14-35.94L17.14-35.94Q17.48-35.94 17.6-35.73 17.72-35.52 17.72-34.89L17.72-34.89Q17.55-33.13 17.46-31.69 17.36-30.25 17.25-29 17.14-27.76 17.02-26.64 16.89-25.51 16.67-24.34L16.67-24.34 16.19-20.56 25.05-20.65Q25.27-23.9 25.54-26.17 25.81-28.44 25.88-29.76L25.88-29.76Q25.95-31.01 25.98-31.54 26-32.08 26-32.15ZM44.99 1.27L40.55 1.27Q40.28 1.22 40.16 1 40.04 0.78 40.04 0.51L40.04 0.51Q40.04 0.29 40.13 0.12L40.13 0.12 43.14-5.62Q43.16-5.71 43.22-6.37 43.28-7.03 43.36-8.02 43.43-9.01 43.52-10.23 43.6-11.45 43.7-12.65 43.8-13.84 43.88-14.93 43.97-16.02 44.04-16.75L44.04-16.75Q44.06-17.04 44.11-17.64 44.16-18.24 44.21-19.02 44.26-19.8 44.33-20.7 44.41-21.61 44.48-22.51L44.48-22.51 44.82-27.61Q44.16-27.47 43.45-27.31 42.75-27.15 42.08-27.03 41.4-26.9 40.81-26.82 40.21-26.73 39.77-26.73L39.77-26.73Q39.5-26.73 39.37-26.98 39.23-27.22 39.23-27.49L39.23-27.49Q39.23-27.81 39.38-27.95L39.38-27.95 45.58-33.74Q46.34-34.42 47.08-34.85 47.82-35.28 48.87-35.52 49.92-35.77 51.45-35.85 52.98-35.94 55.32-35.94L55.32-35.94Q59.32-35.94 62.42-35.11 65.52-34.28 67.67-32.74L67.67-32.74Q69.26-31.64 70.51-30.44 71.75-29.25 72.6-27.8 73.46-26.34 73.9-24.6 74.34-22.85 74.34-20.65L74.34-20.65Q74.34-16.48 73.09-13.23 71.85-9.99 69.7-7.56 67.55-5.13 64.68-3.44 61.81-1.76 58.55-0.71 55.3 0.34 51.82 0.81 48.34 1.27 44.99 1.27L44.99 1.27ZM54.73-28.13L54.73-28.13 54.44-25.17Q54.29-23.63 54.14-21.89 53.98-20.14 53.83-18.35 53.68-16.55 53.54-14.81 53.39-13.06 53.27-11.55 53.15-10.03 53.05-8.84 52.95-7.64 52.88-6.93L52.88-6.93 52.81-6.2Q55.76-6.2 57.8-7.15 59.84-8.11 61.11-9.78 62.38-11.45 62.95-13.7 63.52-15.94 63.52-18.53L63.52-18.53Q63.52-20.39 63.01-22.11 62.5-23.83 61.52-25.39L61.52-25.39Q60.54-26.95 59.13-27.73 57.71-28.52 55.93-28.52L55.93-28.52Q55.64-28.52 55.3-28.38 54.95-28.25 54.73-28.13Z" fill="#804dee" data-fill-palette-color="primary"></path></g></svg></g></svg></g></svg></g></svg></g><g transform="matrix(1,0,0,1,48.34428266938282,0)"><svg viewBox="0 0 95.31143466123436 137.95381376518222" height="137.95381376518222" width="95.31143466123436"><g><svg xmlns="http://www.w3.org/2000/svg" data-name="Layer 1" viewBox="18.319962741419626 4.161601338733494 63.34003725858037 91.67839866126651" x="0" y="0" height="137.95381376518222" width="95.31143466123436" class="icon-icon-0" data-fill-palette-color="accent" id="icon-0"><path d="M76.61 65.1l1.19-7.78a1.64 1.64 0 0 0 0-0.23 4.28 4.28 0 0 0-4.28-4.27H63.07A5.74 5.74 0 0 1 59.44 46 17.84 17.84 0 0 0 67.73 33.9c1.39-2.62 6.66-13.66 0.61-20.57-0.46-0.53-7.56-8.78-17.44-9.16C45.19 4 39.77 6.41 34.8 11.47a13 13 0 0 0-5.45 7.72c-0.79 3.6 0.19 7.47 2.87 11.51a17.87 17.87 0 0 0 8.55 15.21 5.77 5.77 0 0 1-3.62 6.91H26.33a4.28 4.28 0 0 0-4.27 4.27 0.86 0.86 0 0 0 0 0.23l1.21 8a26.51 26.51 0 0 0-4.95 15.47V91.34a4.51 4.51 0 0 0 4.5 4.5H77.16a4.51 4.51 0 0 0 4.5-4.5V80.76C81.66 74.48 80 69.48 76.61 65.1ZM32.28 19.87a10.06 10.06 0 0 1 4.23-5.93 1.54 1.54 0 0 0 0.32-0.25C41.21 9.19 45.9 7 50.76 7.17c8.66 0.32 15.22 8 15.29 8.1l0 0c4.29 4.88 0.93 13.23-0.54 16.3a4.58 4.58 0 0 1-0.33-0.46 1.62 1.62 0 0 0-0.1-0.18l-0.23-0.42c0-0.08-0.08-0.18-0.12-0.27a4 4 0 0 1-0.2-0.46 3.24 3.24 0 0 1-0.13-0.33L64.24 29c0-0.13-0.07-0.26-0.11-0.39A5.44 5.44 0 0 1 64 28c0-0.14-0.07-0.28-0.1-0.42l-0.12-0.75-0.06-0.41c-0.05-0.4-0.09-0.82-0.11-1.27a5.7 5.7 0 0 0-2.12-4.2 5.89 5.89 0 0 0-0.71-0.48l-0.15-0.08a5.7 5.7 0 0 0-0.76-0.34l-0.12 0a6.93 6.93 0 0 0-0.75-0.2l-0.12 0a4.54 4.54 0 0 0-0.82-0.07h-0.18a6 6 0 0 0-0.84 0.07c-7.09 1.21-18.69 0.51-18.8 0.5a1.5 1.5 0 0 0-1.59 1.63A15.18 15.18 0 0 1 35.39 30L35 29.43C32.56 26 31.65 22.74 32.28 19.87Zm3.33 14.21h0a1.73 1.73 0 0 0 0.46-0.12l0.06 0a1.73 1.73 0 0 0 0.41-0.3c0.14-0.15 3.22-3.46 3.12-10.3 3.56 0.16 12 0.37 17.82-0.62a2.53 2.53 0 0 1 2.06 0.54 2.77 2.77 0 0 1 1 2c0 0.27 0 0.54 0 0.81l0 0.25 0.06 0.56c0 0.1 0 0.2 0 0.29s0.05 0.36 0.08 0.54a2.74 2.74 0 0 1 0.05 0.28l0.12 0.57a1.74 1.74 0 0 1 0.05 0.22c0.07 0.27 0.13 0.53 0.21 0.78v0.05c0.07 0.24 0.15 0.47 0.23 0.7 0 0.07 0.05 0.14 0.08 0.22s0.12 0.34 0.19 0.5l0.1 0.24 0.21 0.46c0 0.07 0.07 0.14 0.1 0.22l0.26 0.47 0.09 0.15c0.12 0.2 0.24 0.39 0.37 0.58l0.06 0.07c0.11 0.15 0.23 0.3 0.34 0.43l0.14 0.15q0.15 0.16 0.3 0.3l0.16 0.14a2.34 2.34 0 0 0 0.31 0.24l0.17 0.12 0.08 0.06a14.85 14.85 0 0 1-6.87 8.93 1.26 1.26 0 0 0-0.45 0.26 14.93 14.93 0 0 1-21.57-9.75Zm8.32 13.38a17.76 17.76 0 0 0 12.36 0 8.58 8.58 0 0 0 1.83 5.32h-16A8.58 8.58 0 0 0 43.93 47.46Zm-17.6 8.36H73.54A1.28 1.28 0 0 1 74.81 57L70.44 85.71a0.82 0.82 0 0 0 0 0.22 1.27 1.27 0 0 1-1.27 1.28H30.73a1.27 1.27 0 0 1-1.27-1.28 1.64 1.64 0 0 0 0-0.22L25.06 57A1.28 1.28 0 0 1 26.33 55.82Zm-5 35.52V80.76A23.53 23.53 0 0 1 24 69.86l2.47 16.2a4 4 0 0 0 0.21 1.15h-0.79A2.78 2.78 0 0 0 23.1 90v2.85h-0.26A1.5 1.5 0 0 1 21.34 91.34Zm4.76 1.5V90.21H73v2.63Zm52.56-1.5a1.5 1.5 0 0 1-1.5 1.5H76V90a2.78 2.78 0 0 0-2.76-2.78 4 4 0 0 0 0.22-1.15L76 69.44a22 22 0 0 1 2.71 11.32Z" fill="#804dee" data-fill-palette-color="accent"></path><circle cx="45.03" cy="28.31" r="2.4" fill="#804dee" data-fill-palette-color="accent"></circle><circle cx="55.59" cy="28.31" r="2.4" fill="#804dee" data-fill-palette-color="accent"></circle><path d="M55.63 37.37a1.5 1.5 0 0 0-3 0 2.69 2.69 0 0 1-5.38 0 1.5 1.5 0 0 0-3 0 5.69 5.69 0 0 0 11.38 0Z" fill="#804dee" data-fill-palette-color="accent"></path><path d="M42.92 80.31a1.53 1.53 0 0 0 1.06 0.44A1.5 1.5 0 0 0 45 78.19L38.3 71.45 45 64.79a1.5 1.5 0 1 0-2.12-2.12l-7.72 7.72a1.51 1.51 0 0 0 0 2.12Z" fill="#804dee" data-fill-palette-color="accent"></path><path d="M55.31 64.79L62 71.45l-6.74 6.74a1.5 1.5 0 0 0 1.06 2.56 1.49 1.49 0 0 0 1.06-0.44l7.8-7.8a1.52 1.52 0 0 0 0.44-1.06 1.5 1.5 0 0 0-0.44-1.06l-7.71-7.72a1.5 1.5 0 0 0-2.12 2.12Z" fill="#804dee" data-fill-palette-color="accent"></path><path d="M46.37 82.64a1.61 1.61 0 0 0 0.48 0.08 1.5 1.5 0 0 0 1.42-1l6.56-19.41a1.5 1.5 0 1 0-2.84-1L45.43 80.74A1.51 1.51 0 0 0 46.37 82.64Z" fill="#804dee" data-fill-palette-color="accent"></path></svg></g></svg></g><g></g></svg></g></svg></g></svg></g></svg></g><defs></defs></svg><rect width="320" height="360" fill="none" stroke="none" visibility="hidden"></rect></g></svg></g></svg>