<svg xmlns="http://www.w3.org/2000/svg" version="1.1" xmlns:xlink="http://www.w3.org/1999/xlink" xmlns:svgjs="http://svgjs.dev/svgjs" width="2000" height="2250" viewBox="0 0 2000 2250"><g transform="matrix(1,0,0,1,3.410605131648481e-13,0)"><svg viewBox="0 0 320 360" data-background-color="#ffffff" preserveAspectRatio="xMidYMid meet" height="2250" width="2000" xmlns="http://www.w3.org/2000/svg" xmlns:xlink="http://www.w3.org/1999/xlink"><g id="tight-bounds" transform="matrix(1,0,0,1,0,0)"><svg viewBox="0 0 320 360" height="360" width="320"><g><svg></svg></g><g><svg viewBox="0 0 320 360" height="360" width="320"><g><path d="M20.961 227.22l3.726 4.658-1.863-6.056c-0.466-2.795-3.726 0.466-1.863 1.398M25.153 224.425c1.397 2.329 2.795 4.658 2.795 6.987 0 3.261 2.795 4.658 5.123 5.589-3.261-3.726-5.124-13.974-7.918-12.576M204.017 26.929c7.918 0 15.371-0.932 23.756 0.931 20.495 5.124 37.729 15.371 49.374 29.811l32.606 52.169c1.397 13.042 4.192 27.482 3.726 43.319 3.261 0 2.795-4.658 6.521-5.59-3.726 9.316-5.59 20.961-6.521 34.469-2.329-7.453 0-18.632 0.466-24.687-3.261 5.124-5.124 1.397-5.124-0.932 0.466-3.726-1.397-3.261-2.795-4.658-5.124-4.658-8.384-9.782-12.11-17.7 2.329-6.055 2.795-14.905-4.658-19.563-2.329-1.397-5.124-3.726-6.521-7.453-1.863-5.124-5.124-11.179-4.193-19.097 0.466-2.329-6.987 5.124-11.179 1.863-18.166-12.576-36.332-27.016-58.224-39.127-11.645 0-20.029-4.192-24.221-9.316-3.726-4.658-0.932-10.713 4.658-11.179 3.261 0 6.987-0.932 9.782 0.932 0.466-1.863 2.329-4.192 4.657-4.192M157.904 16.215l0.932 0.466c4.658 0.932 6.987 7.453 12.11 5.124 0 3.261 0.466 6.521-0.466 8.85-1.397 3.726-5.59 3.726-8.85 3.726-31.208-1.863-49.374 11.179-68.471 22.358-5.124 3.261-10.713 5.59-14.906 9.782-20.029 18.632-41.921 35.866-47.045 70.335l-4.192 38.195c-0.466 4.192-5.124 8.384-4.192 13.508l3.26 22.824c-3.261-3.261-5.124 0.932-4.192 2.795 0.466 1.397 2.329 6.055 5.124 1.863 3.726 6.987 7.453 20.495 12.576 26.55 15.837 18.632 36.332 35.4 53.101 52.169 4.192-0.932 7.453-0.932 8.384-3.727 1.397 2.795-1.397 5.59-3.726 6.056 7.453 4.658 15.837 8.85 27.016 9.781 14.44 0.932 27.948 3.261 40.524 6.522 6.521-1.863 13.042-2.795 20.029-3.261 2.329 0 3.726-3.726 6.521-4.658l0.466-4.658c2.795 4.192 2.329-1.397 0.466-4.192 3.261 2.795 4.192 5.124 5.589 6.987 0-1.397 3.726-6.521 3.727-0.466l0.931-6.055c1.397-0.932 1.863 5.124 3.261 0.931 1.397-4.192 4.192-0.932 6.987-2.329-0.932 1.863-0.466 5.59 2.794 3.261l3.727-3.261c2.329 5.59 6.055 3.261 7.918 2.329 20.495-13.042 40.99-28.413 60.553-43.784l-0.466 6.055 2.329-7.453c2.329 2.329 4.192 0.466 5.124-0.931 2.795-4.658 6.521-9.316 12.577-13.508-7.453 20.029-16.303 35.866-27.482 48.908l-4.658 5.59c0 3.261-0.932 7.453-4.658 7.918-1.863 0.466-5.59-0.932-8.384 1.863-1.397 1.863 3.261 5.59-0.466 2.795-3.261-2.329-6.521 0-10.248 0.932-2.795 0.932 1.863 3.726 2.795 5.589 0.932 1.863 1.863 3.726 1.398 6.056l-5.124-5.59c-6.055 3.261-9.782 9.316-14.906 13.974-2.329 1.863-1.397 5.124-1.397 7.918-3.261 0-6.987-0.932-8.85 0.932-1.397 1.863-0.932 4.658-0.932 7.453-4.658-0.466-5.124-7.453-9.315-6.056-4.192 0.932-8.85 1.397-12.577 3.727 2.795 5.59-4.658 2.329-3.726 3.26-6.987-4.192-13.042-7.453-20.495-4.658-15.837-5.124-35.4-2.795-49.84-0.931 0-2.329 0.466-4.658-0.466-5.124-0.932 2.329-3.726 1.397-3.26 1.397-8.85-6.055-17.7-9.782-27.016-14.905-8.384 0.932-16.303-3.261-18.632-5.59-6.521-6.055-13.974-2.795-20.029-4.192-13.042-3.261-17.7-16.769-19.098-26.084-0.932-4.658-4.658-6.521-6.055-6.056-6.055-19.563-15.371-37.263-22.824-55.429-1.863-4.658-1.397-9.316-1.397-14.44 2.329 0.932 4.658 0.466 4.192-2.794-2.329-15.371-7.918-27.016-13.974-38.195 3.261-15.837 3.726-34.469 11.179-48.443 6.521-12.576 18.632-19.098 27.016-29.811 2.795-3.726 2.795-8.85 5.59-12.11 9.316-9.316 18.632-19.098 28.879-27.482 4.658-3.726 10.247 0 17.234-1.397 2.329-8.384 11.645-15.837 20.495-13.508 3.726 0.932 11.179-8.85 13.508-9.782 3.726-1.397 1.863 3.726 1.863 6.987 8.85-6.987 20.961-10.713 32.14-14.906" fill="#804dee" fill-rule="nonzero" stroke="none" stroke-width="1" stroke-linecap="butt" stroke-linejoin="miter" stroke-miterlimit="10" stroke-dasharray="" stroke-dashoffset="0" font-family="none" font-weight="none" font-size="none" text-anchor="none" style="mix-blend-mode: normal" data-fill-palette-color="tertiary"></path></g><g transform="matrix(1,0,0,1,64,130.08906882591094)"><svg viewBox="0 0 192 99.82186234817814" height="99.82186234817814" width="192"><g><svg viewBox="0 0 192 99.82186234817814" height="99.82186234817814" width="192"><g><svg viewBox="0 0 192 99.82186234817814" height="99.82186234817814" width="192"><g><svg viewBox="0 0 192 99.82186234817814" height="99.82186234817814" width="192"><g id="textblocktransform"><svg viewBox="0 0 192 99.82186234817814" height="99.82186234817814" width="192" id="textblock"><g><svg viewBox="0 0 192 99.82186234817814" height="99.82186234817814" width="192"><g transform="matrix(1,0,0,1,0,0)"><svg width="192" viewBox="1.98 -35.94 72.36 37.62" height="99.82186234817814" data-palette-color="#804dee"><g class="wordmark-text-0" data-fill-palette-color="primary" id="text-0"><path d="M26-32.15L26-32.15Q26-33.03 26.16-33.36 26.32-33.69 26.81-33.81L26.81-33.81 35.21-35.84Q35.52-35.94 35.86-35.94L35.86-35.94Q36.21-35.94 36.33-35.73 36.45-35.52 36.45-34.89L36.45-34.89 36.16-31.05Q36.04-29.37 35.89-27.71 35.74-26.05 35.45-24.8L35.45-24.8 35.01-21.34Q34.81-19.8 34.64-18.01 34.47-16.21 34.28-13.99L34.28-13.99 33.13-1.95Q33.11-1.73 33.03-1.51 32.96-1.29 32.71-1.2L32.71-1.2Q32.54-1.12 31.92-0.88 31.3-0.63 30.44-0.32 29.59 0 28.61 0.35 27.64 0.71 26.76 1 25.88 1.29 25.2 1.49 24.51 1.68 24.27 1.68L24.27 1.68Q23.93 1.68 23.67 1.5 23.41 1.32 23.41 0.81L23.41 0.81Q23.41-2.15 23.75-5.24 24.1-8.33 24.37-11.38L24.37-11.38Q24.41-11.72 24.4-12.01 24.39-12.3 24.44-12.65L24.44-12.65 15.5-12.65 14.5-1.95Q14.48-1.73 14.42-1.53 14.36-1.32 14.09-1.2L14.09-1.2Q13.99-1.15 13.12-0.84 12.26-0.54 11.12-0.13 9.99 0.27 8.87 0.67 7.76 1.07 7.18 1.29L7.18 1.29Q6.88 1.42 6.46 1.55 6.03 1.68 5.62 1.68L5.62 1.68Q5.27 1.68 5.02 1.49 4.76 1.29 4.76 0.78L4.76 0.78Q4.76-0.39 4.85-1.89 4.93-3.39 5.05-5.04 5.18-6.69 5.35-8.42 5.52-10.16 5.69-11.84L5.69-11.84 5.74-12.55Q3.76-12.55 2.87-12.66 1.98-12.77 1.98-13.23L1.98-13.23Q1.98-13.55 2.34-14.06L2.34-14.06Q2.83-14.75 3.48-15.71 4.13-16.67 4.72-17.61 5.32-18.55 5.8-19.3 6.27-20.04 6.42-20.26L6.42-20.26 6.98-26.15Q6.98-26.2 7.03-26.88 7.08-27.56 7.15-28.5 7.23-29.44 7.31-30.44 7.4-31.45 7.47-32.15L7.47-32.15Q7.52-33.01 7.6-33.35 7.69-33.69 8.18-33.81L8.18-33.81 16.48-35.84Q16.8-35.94 17.14-35.94L17.14-35.94Q17.48-35.94 17.6-35.73 17.72-35.52 17.72-34.89L17.72-34.89Q17.55-33.13 17.46-31.69 17.36-30.25 17.25-29 17.14-27.76 17.02-26.64 16.89-25.51 16.67-24.34L16.67-24.34 16.19-20.56 25.05-20.65Q25.27-23.9 25.54-26.17 25.81-28.44 25.88-29.76L25.88-29.76Q25.95-31.01 25.98-31.54 26-32.08 26-32.15ZM44.99 1.27L40.55 1.27Q40.28 1.22 40.16 1 40.04 0.78 40.04 0.51L40.04 0.51Q40.04 0.29 40.13 0.12L40.13 0.12 43.14-5.62Q43.16-5.71 43.22-6.37 43.28-7.03 43.36-8.02 43.43-9.01 43.52-10.23 43.6-11.45 43.7-12.65 43.8-13.84 43.88-14.93 43.97-16.02 44.04-16.75L44.04-16.75Q44.06-17.04 44.11-17.64 44.16-18.24 44.21-19.02 44.26-19.8 44.33-20.7 44.41-21.61 44.48-22.51L44.48-22.51 44.82-27.61Q44.16-27.47 43.45-27.31 42.75-27.15 42.08-27.03 41.4-26.9 40.81-26.82 40.21-26.73 39.77-26.73L39.77-26.73Q39.5-26.73 39.37-26.98 39.23-27.22 39.23-27.49L39.23-27.49Q39.23-27.81 39.38-27.95L39.38-27.95 45.58-33.74Q46.34-34.42 47.08-34.85 47.82-35.28 48.87-35.52 49.92-35.77 51.45-35.85 52.98-35.94 55.32-35.94L55.32-35.94Q59.32-35.94 62.42-35.11 65.52-34.28 67.67-32.74L67.67-32.74Q69.26-31.64 70.51-30.44 71.75-29.25 72.6-27.8 73.46-26.34 73.9-24.6 74.34-22.85 74.34-20.65L74.34-20.65Q74.34-16.48 73.09-13.23 71.85-9.99 69.7-7.56 67.55-5.13 64.68-3.44 61.81-1.76 58.55-0.71 55.3 0.34 51.82 0.81 48.34 1.27 44.99 1.27L44.99 1.27ZM54.73-28.13L54.73-28.13 54.44-25.17Q54.29-23.63 54.14-21.89 53.98-20.14 53.83-18.35 53.68-16.55 53.54-14.81 53.39-13.06 53.27-11.55 53.15-10.03 53.05-8.84 52.95-7.64 52.88-6.93L52.88-6.93 52.81-6.2Q55.76-6.2 57.8-7.15 59.84-8.11 61.11-9.78 62.38-11.45 62.95-13.7 63.52-15.94 63.52-18.53L63.52-18.53Q63.52-20.39 63.01-22.11 62.5-23.83 61.52-25.39L61.52-25.39Q60.54-26.95 59.13-27.73 57.71-28.52 55.93-28.52L55.93-28.52Q55.64-28.52 55.3-28.38 54.95-28.25 54.73-28.13Z" fill="#804dee" data-fill-palette-color="primary"></path></g></svg></g></svg></g></svg></g></svg></g><g></g></svg></g></svg></g></svg></g></svg></g><defs></defs></svg><rect width="320" height="360" fill="none" stroke="none" visibility="hidden"></rect></g></svg></g></svg>